<svg id="Layer_1" data-name="Layer 1" xmlns="http://www.w3.org/2000/svg" xmlns:xlink="http://www.w3.org/1999/xlink" viewBox="0 0 338.04 349.28"><defs><style>.cls-1{fill:url(#linear-gradient);}</style><linearGradient id="linear-gradient" x1="704.08" y1="-163.24" x2="758.51" y2="-72.65" gradientUnits="userSpaceOnUse"><stop offset="0" stop-color="#2483c5"/><stop offset="0.38" stop-color="#2483c5" stop-opacity="0"/><stop offset="1" stop-color="#2483c5" stop-opacity="0.4"/></linearGradient></defs><path class="cls-1" d="M106.9,279q0,19.42,3.39,27t12,11.81a41.89,41.89,0,0,0,7.84,2.69A65.48,65.48,0,0,0,140.35,322a6.67,6.67,0,0,1,1.4.23q11.46,1.41,11.7,6.09a4.77,4.77,0,0,1-2.34,3.85,12.31,12.31,0,0,1-6.32,1.29c-.78,0-2.65-.08-5.61-.23q-28.07-2.11-57.3-2.11-29,0-57.08,2.11c-3,.15-4.83.23-5.61.23a12.27,12.27,0,0,1-6.31-1.29,4.73,4.73,0,0,1-2.34-3.85q.23-4.68,11.69-6.09a6.65,6.65,0,0,1,1.41-.23,65.86,65.86,0,0,0,10.17-1.52,38.09,38.09,0,0,0,8.07-2.92A23.13,23.13,0,0,0,53.69,306q3.39-7.61,3.39-27V63.35q0-18.48-3.39-26.2t-12-11.69a47.61,47.61,0,0,0-8-2.34,82.61,82.61,0,0,0-10-1.4,6.19,6.19,0,0,1-1.41-.24q-11.46-1.39-11.69-5.14a3.84,3.84,0,0,1,2.34-3.4,13.19,13.19,0,0,1,6.31-1.28h4q4.91.46,14.15.7t20.7.23q18,0,48.53-1.17t42.92-1.17Q211,10.25,239.64,30t28.65,62.1q0,26.84-12.69,45.59a69.81,69.81,0,0,1-4.59,6,74.91,74.91,0,0,1-5.29,5.58C232,164.15,215,180.15,192,179.15c4,4,9,8,12,13,8,15,13,31,25.88,43.48l4.4,5.16,49,57.39a72.13,72.13,0,0,0,14.5,13.1Q306,316.89,319.52,322a2,2,0,0,1,.7.23c7.17,3.13,10.76,5.77,10.76,8,0,1.09-.75,2.07-2.23,2.92a10.38,10.38,0,0,1-5.26,1.29,14.06,14.06,0,0,1-2-.12A9.42,9.42,0,0,1,320,334c-.46,0-1.56-.08-3.27-.24q-16.84-1.64-31.11-1.63c-1.4,0-2.92.08-4.56.23l-6.9.7h-11q-9.36,0-13.34-1.63a17.41,17.41,0,0,1-7.25-6.09L167.26,231,163,225.62C151,213.15,144,196.15,129,187a22.34,22.34,0,0,0-5.9-1.87,42.35,42.35,0,0,0-7.57-.61q-5.15,0-6.9,2.1t-1.76,8Zm0-118.82q0,8.43,2.34,10.88t9.59,2.46c2.15,0,4.25,0,6.32-.07s4.19,0,6.25,0c31.56-2.26,61.56-14.26,72.84-46.1a78.35,78.35,0,0,0,5.57-8.93,64.67,64.67,0,0,0,4.08-9.44c.26-3.06.37-6.26.37-9.57q0-40.7-20.46-60.11T130.29,19.84q-13.56,0-18.48,3.86T106.9,38.56ZM1964.44,287.43"/></svg>